<svg viewBox="0 0 50 40" fill="none" xmlns="http://www.w3.org/2000/svg"><path d="M20.45.26c-1.36.44-2.5 1.22-2.79 1.9l-.12.28h-1.88l-.25-.51a1.43 1.43 0 0 0-.68-.74l-.44-.24h-3.18c-4.18 0-4.7.2-4.7 1.85v.47l-.71.34a10.72 10.72 0 0 0-5.47 6.74l-.23.82v10.09c0 11.01-.03 10.3.55 11.86a10.53 10.53 0 0 0 8 6.7c1.24.24 31.66.24 32.9 0 3.69-.68 6.7-3.21 8-6.7.58-1.56.55-.85.55-11.86v-10.09l-.22-.77a10.58 10.58 0 0 0-8.15-7.72c-.61-.14-1.42-.17-4.95-.21l-4.23-.05-.11-.27c-.29-.68-1.52-1.5-2.87-1.92-1.07-.32-8-.3-9.02.03Zm19.61 5.56a7.3 7.3 0 0 1 6.34 4.97l.27.77.03 9.31c.03 10.65.07 10.15-.78 11.86a7.23 7.23 0 0 1-5 3.82c-1.13.22-30.7.22-31.85 0a7.33 7.33 0 0 1-5.06-3.96c-.77-1.55-.74-1.18-.71-11.72l.03-9.31.3-.84a7.39 7.39 0 0 1 6.14-4.9c1.19-.11 29.08-.12 30.29 0Zm-30.54 1.07c-3.14.45-5.17 3-5.17 6.5v1.3h6.72l.22-.45a15.7 15.7 0 0 1 8.32-7.26.1.1 0 0 0 .1-.1c0-.12-9.36-.11-10.2 0Zm20.76-.04c0 .05.17.15.37.22 3.07 1.06 6.81 4.4 8.09 7.22l.18.4h6.73v-1.3c0-3.26-1.52-5.4-4.5-6.37-.6-.2-10.87-.35-10.87-.16Zm-6.2.67c-11.41 1.1-16.95 13.45-9.99 22.28 7.7 9.75 23.79 4.9 24.8-7.48.67-8.29-6.64-15.59-14.82-14.8Zm2.58 3.43c6.57.93 10.67 8.01 8.17 14.13a10.63 10.63 0 0 1-17.42 3.4c-7.02-7.23-.83-18.96 9.25-17.53Zm-2.79 1.62a8.75 8.75 0 0 0-6.98 12.2c2.68 6.22 11.67 7 15.49 1.33 4.17-6.2-1.09-14.56-8.5-13.53Zm3.85 1.34c1.14.35 2 1.17 2.01 1.93.05 1.75-3.5 1.7-4.69-.08-.9-1.34.7-2.45 2.68-1.85Zm-5.02 13.35c1.08.22 2.7 1.2 2.7 1.62 0 1-3.64.36-4.7-.83-.74-.83.16-1.18 2-.8Zm19.21 3.74c-2.02.62-1.63 3.39.48 3.38 2.14 0 2.3-3.12.17-3.4-.21-.04-.5-.02-.65.02Z" fill="#fff"/></svg>