<svg viewBox="0 0 32 50" fill="none" xmlns="http://www.w3.org/2000/svg"><g clip-path="url(#a)"><path d="M4.37 50v-2.9h10.22v-6.17a16.16 16.16 0 0 1-14.59-16h2.88a13.1 13.1 0 0 0 5.53 10.65l.04.03a12.55 12.55 0 0 0 8.22 2.45h-.04c7-.34 12.55-6.06 12.61-13.09h2.9v.1c0 4.16-1.6 7.93-4.23 10.74a15.89 15.89 0 0 1-10.27 5.12h-.06v6.1h10.25v2.94l-23.46.03Z" fill="#CCBA8D"/><path d="M26.33 11.7v4.41h-7.29v2.91h7.27v4.4h-7.25v2.94h7.13a10.25 10.25 0 0 1-20.26.05v-.05h7.17v-2.9h-7.24v-4.4h7.24v-2.93h-7.24v-4.37h7.24v-2.97h-7.14a10.25 10.25 0 0 1 20.23-.07v.06h-7.15v2.93h7.29Z" fill="#BDAE82"/></g><defs><clipPath id="a"><path fill="#fff" d="M0 0h32v50h-32z"/></clipPath></defs></svg>