<svg viewBox="0 0 62 50" fill="none" xmlns="http://www.w3.org/2000/svg"><g clip-path="url(#a)"><path d="M30.9 50.04h-24.48a6.41 6.41 0 0 1-6.42-6.42v-.1.01c.07-9.43.07-18.87 0-28.32v-.04a6.43 6.43 0 0 1 6.43-6.43h49.26a6.15 6.15 0 0 1 6.14 6.45v-.02 28.36l.01.37a6.15 6.15 0 0 1-6.46 6.14h.02-24.5Zm0-6.17h.14a14.44 14.44 0 1 0-14.44-14.48 14.5 14.5 0 0 0 14.25 14.4h.01l.04.08Zm-18.52-24.82a2.1 2.1 0 0 0-2.07-2.04 2.05 2.05 0 1 0 0 4.11 2.1 2.1 0 0 0 2.07-2.07Zm29.9-12.88h-22.75c.36-1.43.68-2.81 1.04-4.19a2.16 2.16 0 0 1 2.55-1.98h-.02 15.84l.23-.01c1.05 0 1.91.78 2.05 1.79l.99 3.87c.03.16.03.32.07.52Z" fill="#CCBA8D"/><path d="M30.86 43.8a14.44 14.44 0 1 1 14.48-14.44v.15a14.51 14.51 0 0 1-14.48 14.29Zm0-4.13a10.31 10.31 0 1 0-10.31-10.35v.08c0 5.67 4.6 10.27 10.27 10.27h.12-.08Z" fill="#CCBA8D"/><path d="M12.38 19.05a2.1 2.1 0 0 1-2.03 2.07 2.05 2.05 0 1 1 0-4.1c1.1.03 2 .92 2.03 2.03Z" fill="#BDAE82"/><path d="M31.13 21.14a8.3 8.3 0 0 1 8.02 8.03v.14c0 1.13-.88 2.06-2 2.12h-.02a2.07 2.07 0 0 1-2.07-2.07 4.2 4.2 0 0 0-4.09-4.13h-.06a2.04 2.04 0 0 1-2.04-2.03v-.1a2.07 2.07 0 0 1 2.27-1.96h-.01Z" fill="#CCBA8D"/></g><defs><clipPath id="a"><path fill="#fff" d="M0 0h62v50h-62z"/></clipPath></defs></svg>