<svg viewBox="0 0 66 50" fill="none" xmlns="http://www.w3.org/2000/svg"><g clip-path="url(#a)"><path d="M0 48.5v-47a2.4 2.4 0 0 1 2.4-1.5h61.33a2.25 2.25 0 0 1 2.42 2.44v-.01 45.33l.02.22a2 2 0 0 1-2 1.99h-61.53a2.53 2.53 0 0 1-2.64-1.45v-.02Zm62.07-44.36h-57.95v27.95l.64-.44 11.23-8.05a2.18 2.18 0 0 1 3.1 0l11.8 8.46c1.82 1.31 3.65 2.62 5.47 3.9a1.99 1.99 0 0 0 3.12-1v-.02a2.06 2.06 0 0 0-.97-2.37 380.06 380.06 0 0 1-7.47-5.39l-.57-.42.33-.25 10.17-7.3a2.18 2.18 0 0 1 3.1 0l17.34 12.44.64.42.02-27.93Z" fill="#BDAE82"/><path d="M26.96 9.35a5.48 5.48 0 0 1 5.48 5.47 5.48 5.48 0 1 1-10.8-.03v.03c0-2.97 2.36-5.4 5.31-5.48h.01Z" fill="#CCBA8D"/></g><defs><clipPath id="a"><path fill="#fff" d="M0 0h66v50h-66z"/></clipPath></defs></svg>