<svg viewBox="0 0 28 28" fill="none" xmlns="http://www.w3.org/2000/svg"><path d="M15.36.67c2.4 0 2.9.02 4.13.08 1.42.06 2.39.29 3.23.62.88.34 1.63.8 2.36 1.54.75.73 1.2 1.48 1.55 2.36.33.84.54 1.81.61 3.24.07 1.26.08 1.76.08 4.42v2.14c0 2.66-.01 3.16-.08 4.42a9.76 9.76 0 0 1-.64 3.3l.03-.07c-.35.88-.8 1.63-1.54 2.36a6.57 6.57 0 0 1-2.37 1.55 9.6 9.6 0 0 1-3.23.61c-1.26.07-1.77.08-4.44.08h-2.12c-2.66 0-3.16-.01-4.44-.08a9.76 9.76 0 0 1-3.3-.63l.08.02a6.57 6.57 0 0 1-2.36-1.54 6.54 6.54 0 0 1-1.54-2.33l-.01-.04a9.6 9.6 0 0 1-.61-3.22 70.7 70.7 0 0 1-.08-4.18v.04-2.73c0-2.4.02-2.91.08-4.14.06-1.41.29-2.38.6-3.22.36-.88.8-1.63 1.56-2.36a6.27 6.27 0 0 1 2.31-1.52l.05-.02a9.4 9.4 0 0 1 3.21-.62h.01c1.23-.06 1.74-.08 4.14-.08h2.73Zm.03 2.4h-2.79c-2.3 0-2.8.02-4 .08-1.3.05-2 .26-2.47.45-.62.24-1.06.53-1.53 1s-.76.9-1 1.53c-.17.47-.4 1.18-.45 2.48-.06 1.2-.08 1.68-.08 4v2.78c0 2.32.02 2.8.08 4 .05 1.29.26 2 .45 2.46.24.63.53 1.07 1 1.54.47.46.9.76 1.53 1 .47.18 1.18.4 2.48.45 1.3.07 1.76.08 4.64.08h1.48c2.9 0 3.35-.01 4.66-.08 1.29-.05 2-.27 2.46-.45a4.07 4.07 0 0 0 1.54-1c.46-.47.76-.91 1-1.54.18-.46.4-1.17.45-2.46.07-1.31.08-1.76.08-4.66v-1.46c0-2.9-.01-3.36-.08-4.67-.05-1.3-.27-2-.45-2.47a4.14 4.14 0 0 0-1-1.53 4.14 4.14 0 0 0-1.5-1h-.04a7.32 7.32 0 0 0-2.46-.45 70.03 70.03 0 0 0-4.03-.08h.03Zm-1.39 4.08a6.85 6.85 0 1 1 0 13.7 6.85 6.85 0 0 1 0-13.7Zm0 2.4a4.45 4.45 0 1 0 0 8.9 4.45 4.45 0 0 0 0-8.9Zm7.1-4.27a1.6 1.6 0 1 1 0 3.2 1.6 1.6 0 0 1 0-3.2Z" fill="#fff"/></svg>