<svg viewBox="0 0 28 28" fill="none" xmlns="http://www.w3.org/2000/svg"><path d="M14 .67a13.33 13.33 0 0 0-4.94 25.7l.09.03c-.14-1.05-.23-2.67.04-3.83l1.56-6.62s-.4-.8-.4-1.98c0-1.85 1.08-3.22 2.42-3.22 1.14 0 1.7.85 1.7 1.86 0 1.15-.74 2.86-1.12 4.44-.32 1.34.66 2.42 1.98 2.42 2.38 0 4.19-2.5 4.19-6.1 0-3.2-2.3-5.41-5.57-5.41h-.26a5.77 5.77 0 0 0-5.77 5.77c0 1.15.44 2.38.99 3.04.1.14.12.26.08.39l-.38 1.5c-.05.25-.2.31-.44.2-1.68-.8-2.72-3.2-2.72-5.18 0-4.2 3.07-8.05 8.83-8.05 4.62 0 8.23 3.28 8.23 7.7 0 4.6-2.9 8.28-6.93 8.28-1.34 0-2.62-.7-3.04-1.53l-.84 3.16c-.43 1.34-1 2.5-1.7 3.56l.04-.05a13.33 13.33 0 1 0 3.96-26.08Z" fill="#fff"/></svg>