<svg viewBox="0 0 130 130" fill="none" xmlns="http://www.w3.org/2000/svg"><path d="M58.52.14c-.5.12-2.95.55-5.45.95-46.9 7.6-69.08 64.81-40.04 103.28 9.04 11.97 29.8 25.54 30.83 20.14.13-.68-1.1-1.53-4.17-2.89-12.6-5.56-23.98-16.5-30.2-29.03-22.56-45.46 16.05-96.91 66.48-88.56 7.57 1.25 8.89-1.36 1.46-2.92-3.38-.7-17.09-1.41-18.9-.97Zm.3 13.4c-8.86 1.3-20.27 5.85-20.27 8.07 0 1.73 1.28 1.6 5.96-.62 25.63-12.11 56.84 1.14 66.13 28.08 15.44 44.78-35.52 82.69-74.21 55.2-21.5-15.26-26.46-45.6-11.03-67.43 4.1-5.8 1.94-8.25-2.24-2.55-25.77 35.1 1.14 84.7 44.61 82.22 43.89-2.5 64.87-55.09 34.67-86.89-11.07-11.66-28.93-18.24-43.62-16.08Zm52.77 7.9c-.9.9-.21 2.52 2.67 6.26 21.36 27.76 14.37 69.24-14.97 88.76-13.21 8.8-24.82 11.23-46.52 9.77-2.04-.13-2.42.02-2.42 1 0 4.48 25.97 3.27 38.85-1.8 37.77-14.9 52.66-62.94 29.9-96.46-4.33-6.36-6.5-8.53-7.51-7.52Zm-64.33 22.67c-1.07 1.19-1.16 2.58-1.33 20.1-.27 28.79-3.13 27.92 31.64 9.6 16.94-8.93 17.04-8.65-7.26-21.4-19-9.96-20.92-10.65-23.05-8.3Zm21 10.9c18.47 9.64 18.56 9.7 17.27 10.77-1.45 1.2-34.37 18.22-35.25 18.22-.7 0-.84-3.16-.84-19.07 0-13.37.2-19.07.66-19.07.37 0 8.54 4.12 18.16 9.15Z" fill="#fff"/></svg>