<svg viewBox="0 0 28 22" fill="none" xmlns="http://www.w3.org/2000/svg"><path d="M27.33 2.84c-1 .5-2 .67-3.17.83a4.7 4.7 0 0 0 2.33-3c-1 .6-2.17 1.07-3.42 1.32l-.07.01a5.8 5.8 0 0 0-4-1.67 5.52 5.52 0 0 0-5.33 5.51c0 .5 0 .83.17 1.16a15.32 15.32 0 0 1-11.31-5.64l-.02-.03a5.01 5.01 0 0 0-.67 2.86v-.02c.03 1.88 1 3.52 2.47 4.48l.02.02c-.84 0-1.66-.34-2.5-.67a5.38 5.38 0 0 0 4.33 5.33c-.5.18-1 .18-1.5.18-.33 0-.66 0-1-.18a5.4 5.4 0 0 0 5.18 3.84 10.54 10.54 0 0 1-6.64 2.34h-.21.01-1.33a16.1 16.1 0 0 0 8.31 2.49h.02c10 0 15.5-8.33 15.5-15.5v-.67a9.78 9.78 0 0 0 2.81-2.95l.03-.04Z" fill="#fff"/></svg>