<svg viewBox="0 0 60 50" fill="none" xmlns="http://www.w3.org/2000/svg"><g clip-path="url(#a)"><path d="M59.84 1.3v47.48a2.27 2.27 0 0 1-2.22 1.25h.01-55.44l-.22.02a1.99 1.99 0 0 1-1.97-2.22v.01-45.68l-.01-.18a1.99 1.99 0 0 1 2.2-1.98h-.01 55.43a2.14 2.14 0 0 1 2.23 1.3Zm-37.3 23.68v5.6c0 .36.06.72.15 1.05v-.03a2.4 2.4 0 0 0 3.59 1.1c3.32-1.92 6.61-3.85 9.9-5.8a2.14 2.14 0 0 0 .02-3.78h-.02c-3.29-2.02-6.67-3.96-10.05-5.9a2.37 2.37 0 0 0-3.6 2.17v-.02c.12 1.87.02 3.75.02 5.61Zm-13.1-18.43v-2.98h-5.87v2.98h5.87Zm-5.96 39.83h5.96v-2.93h-5.96v2.93Zm15.35-42.8h-5.76v2.95h5.76v-2.96Zm3.63 0v2.95h5.78v-3.05l-5.78.1Zm15.15 2.97v-2.98h-5.76v2.96l5.76.02Zm9.43-2.98h-5.82v2.96h5.82v-2.96Zm-9.4 42.82v-2.84h-5.8v2.93l5.8-.09Zm-18.82 0v-2.84h-5.77v2.93l5.77-.09Zm9.42 0v-2.84h-5.77v2.95l5.77-.1Zm18.8-2.94h-5.82v2.93h5.82v-2.93Zm9.25-36.9v-3.07h-5.66v3.07h5.66Zm0 36.9h-5.66v2.94h5.68l-.02-2.94Z" fill="#BDAE82"/></g><defs><clipPath id="a"><path fill="#fff" d="M0 0h60v50h-60z"/></clipPath></defs></svg>